<?xml version="1.0" standalone="no"?>
<!DOCTYPE svg PUBLIC "-//W3C//DTD SVG 20010904//EN"
 "http://www.w3.org/TR/2001/REC-SVG-20010904/DTD/svg10.dtd">
<svg version="1.0" xmlns="http://www.w3.org/2000/svg"
 width="512.000000pt" height="512.000000pt" viewBox="0 0 512.000000 512.000000"
 preserveAspectRatio="xMidYMid meet">

<g transform="translate(0.000000,512.000000) scale(0.100000,-0.100000)"
fill="#000000" stroke="none">
<path d="M672 4535 c-44 -19 -65 -69 -56 -138 13 -114 58 -216 129 -295 50
-55 53 -78 7 -49 -241 156 -572 87 -723 -150 -36 -58 -37 -87 -1 -144 60 -92
159 -170 268 -211 88 -32 245 -32 336 1 37 14 69 23 71 20 2 -2 18 -107 35
-234 l31 -230 -44 -44 c-62 -61 -85 -127 -85 -241 0 -121 23 -183 92 -244 54
-50 122 -76 195 -76 l43 0 0 -82 c1 -206 75 -382 225 -534 l81 -81 43 -529
c55 -681 49 -631 82 -668 l27 -31 379 -3 c345 -2 381 -1 413 15 19 10 40 29
47 43 6 14 28 225 48 470 19 245 38 471 42 502 l6 58 153 0 153 0 16 -30 c11
-22 15 -63 15 -165 0 -186 18 -225 105 -225 55 0 95 44 95 104 0 25 2 46 4 46
3 0 37 -16 75 -35 l71 -36 0 -83 c0 -46 5 -97 11 -114 22 -63 104 -83 156 -38
26 22 28 32 33 108 l5 83 77 3 77 3 -6 -319 -6 -318 31 -35 30 -34 389 -3
c355 -2 391 -1 423 15 19 10 40 29 47 43 6 14 43 225 82 470 l72 445 -3 715
-3 715 -27 75 c-35 99 -98 208 -161 277 l-51 55 44 -7 c238 -40 434 -230 485
-471 28 -131 22 -172 -60 -443 -41 -136 -75 -258 -75 -270 0 -36 27 -77 58
-90 20 -9 84 -11 207 -9 l177 3 29 33 c16 18 29 43 29 56 0 13 -34 134 -75
271 -65 214 -75 257 -75 324 0 104 -30 242 -74 335 -123 267 -360 436 -655
465 -63 7 -450 11 -1000 12 -846 0 -895 1 -871 17 90 61 170 166 170 222 0 70
-103 187 -217 248 -155 82 -338 81 -492 -4 -35 -19 -65 -33 -68 -30 -3 2 16
30 41 61 58 71 92 137 111 217 23 97 20 151 -10 186 -64 76 -175 24 -175 -82
0 -109 -101 -243 -215 -285 -55 -21 -73 -22 -260 -19 -189 3 -203 4 -248 28
-110 56 -167 134 -187 255 -13 83 -25 109 -54 123 -39 20 -61 21 -94 7z m-118
-609 c27 -8 66 -26 87 -40 79 -53 36 -116 -103 -153 -57 -15 -75 -16 -123 -6
-67 14 -136 47 -166 80 -22 22 -22 23 -4 43 67 74 203 108 309 76z m1657 -19
c30 -14 68 -37 84 -51 l30 -26 -30 -26 c-110 -93 -274 -107 -386 -31 -45 30
-48 79 -8 110 82 61 212 71 310 24z m-606 -3 c46 -21 69 -72 60 -133 -16 -116
-15 -113 -41 -96 -38 24 -82 19 -115 -14 -41 -41 -40 -91 1 -133 28 -27 36
-30 76 -25 l44 5 -5 -32 c-7 -39 -45 -317 -45 -328 0 -4 -137 -8 -305 -8
l-305 0 -5 23 c-6 28 -45 312 -45 331 0 11 10 13 39 9 73 -10 125 55 100 125
-18 53 -92 79 -135 47 -10 -8 -22 -15 -26 -15 -3 0 -9 39 -13 86 -9 99 -1 125
47 154 31 19 51 20 336 20 256 0 309 -2 337 -16z m2240 -538 c185 -50 327
-179 392 -356 l28 -75 3 -686 3 -687 -61 -373 c-33 -206 -62 -384 -65 -396 -5
-22 -10 -23 -95 -23 l-89 0 6 398 6 397 -26 31 c-19 23 -44 36 -89 49 -92 25
-166 68 -248 143 l-74 67 -654 0 -654 0 -28 -31 c-33 -38 -29 -7 -75 -584 -20
-245 -38 -451 -40 -458 -3 -8 -29 -12 -85 -12 -67 0 -80 3 -80 16 0 39 -81
991 -85 1005 -13 41 -51 60 -136 69 -107 12 -148 24 -234 68 -178 93 -294 290
-295 499 l0 72 268 3 267 3 53 29 c107 59 146 136 146 286 1 95 -2 110 -27
162 -16 32 -45 71 -64 87 l-36 30 18 147 18 147 986 -6 c868 -4 993 -7 1046
-21z m-2167 -446 c44 -41 42 -159 -3 -198 l-27 -23 -385 3 -385 3 -19 24 c-15
18 -19 39 -19 93 0 60 3 72 25 93 l24 25 384 0 c369 0 384 -1 405 -20z m3215
-570 c9 -32 17 -64 17 -70 0 -5 -20 -10 -44 -10 l-44 0 21 70 c11 39 23 70 26
70 3 0 14 -27 24 -60z m-3314 -676 c53 -12 71 -20 71 -33 0 -9 16 -205 35
-436 19 -231 35 -423 35 -427 0 -5 -36 -8 -80 -8 -60 0 -80 3 -80 13 0 8 -16
204 -35 437 -39 467 -39 470 -26 470 5 0 41 -7 80 -16z m1932 -66 c32 -29 59
-55 59 -58 0 -10 -59 -36 -123 -54 -68 -20 -192 -22 -263 -5 -27 6 -76 25
-109 40 -60 29 -155 102 -155 120 0 5 110 9 266 9 l265 0 60 -52z m254 -555
l-7 -283 -81 0 -80 0 6 182 c4 99 7 227 7 283 l0 102 78 50 77 49 3 -51 c2
-27 1 -177 -3 -332z"/>
<path d="M3205 3113 c-63 -16 -96 -77 -72 -135 27 -63 22 -63 334 -68 l285 -5
19 -24 c11 -13 22 -35 25 -50 11 -55 38 -96 73 -107 44 -14 75 -7 105 23 29
29 34 51 24 115 -19 129 -112 222 -248 248 -52 10 -507 12 -545 3z"/>
</g>
</svg>
