<?xml version="1.0" standalone="no"?>
<!DOCTYPE svg PUBLIC "-//W3C//DTD SVG 20010904//EN"
 "http://www.w3.org/TR/2001/REC-SVG-20010904/DTD/svg10.dtd">
<svg version="1.0" xmlns="http://www.w3.org/2000/svg"
 width="524.000000pt" height="521.000000pt" viewBox="0 0 524.000000 521.000000"
 preserveAspectRatio="xMidYMid meet">

<g transform="translate(0.000000,521.000000) scale(0.100000,-0.100000)"
fill="#000000" stroke="none">
<path d="M2420 4649 c-816 -83 -1527 -658 -1785 -1445 -248 -752 -49 -1579
516 -2143 750 -750 1919 -830 2766 -188 269 204 516 515 649 816 434 989 73
2120 -854 2677 -375 225 -844 328 -1292 283z m540 -268 c609 -107 1128 -514
1382 -1083 106 -237 153 -466 153 -748 0 -212 -17 -336 -71 -522 -171 -597
-665 -1091 -1262 -1262 -186 -54 -310 -71 -522 -71 -212 0 -336 17 -522 71
-597 171 -1091 665 -1262 1262 -54 186 -71 310 -71 522 0 212 17 336 71 522
148 515 536 957 1036 1180 170 76 352 123 588 152 84 10 369 -3 480 -23z"/>
<path d="M3215 4208 c-2 -7 -9 -32 -14 -56 -9 -41 -8 -44 16 -53 13 -5 29 -9
35 -9 26 0 150 -75 193 -118 115 -111 170 -243 168 -404 l-1 -97 51 -11 c27
-6 53 -8 56 -4 15 14 12 207 -3 277 -44 192 -196 374 -375 447 -88 37 -120 44
-126 28z"/>
<path d="M1965 4192 c-190 -66 -345 -224 -411 -418 -23 -67 -27 -97 -28 -196
-1 -71 3 -121 10 -128 7 -7 25 -7 60 1 l49 11 1 112 c1 87 6 124 23 171 29 80
93 176 153 230 52 47 152 100 208 111 31 7 32 7 25 52 -12 81 -12 81 -90 54z"/>
<path d="M3166 3978 c-3 -7 -9 -34 -14 -59 l-9 -45 49 -18 c109 -38 181 -145
182 -268 l1 -68 53 -11 c30 -6 57 -8 60 -4 4 4 7 39 6 78 -1 164 -88 305 -229
372 -71 33 -94 39 -99 23z"/>
<path d="M2028 3961 c-132 -52 -227 -160 -258 -293 -12 -54 -13 -165 -1 -172
5 -4 32 -1 59 5 l50 10 4 72 c6 125 85 237 191 269 20 6 37 15 37 19 0 23 -23
109 -28 109 -4 -1 -28 -9 -54 -19z"/>
<path d="M3111 3722 c-5 -21 -12 -53 -16 -72 -4 -19 -9 -42 -11 -51 -4 -13 11
-19 78 -33 46 -9 86 -16 91 -16 12 0 8 69 -7 104 -14 34 -75 91 -107 99 -15 4
-21 -3 -28 -31z"/>
<path d="M2078 3720 c-25 -17 -53 -46 -62 -64 -18 -37 -22 -116 -6 -116 5 0
43 7 85 17 81 17 82 19 66 83 -5 19 -12 52 -16 73 -3 20 -9 37 -14 37 -4 0
-28 -14 -53 -30z"/>
<path d="M2217 3453 c-4 -37 -7 -123 -7 -190 l0 -123 -415 0 -415 0 0 -44 c0
-156 169 -296 356 -296 60 0 170 27 227 56 l27 15 0 -78 c0 -43 -7 -159 -15
-258 -40 -493 -51 -858 -26 -944 8 -28 31 -63 64 -98 l51 -54 565 3 c504 3
569 5 596 20 41 22 71 56 89 99 35 84 30 383 -16 996 -12 166 -19 305 -16 308
3 4 26 -4 50 -16 127 -65 285 -63 404 6 92 54 164 167 164 257 l0 28 -420 0
-420 0 0 159 c0 184 -9 224 -49 219 -34 -4 -38 -25 -40 -220 l-1 -158 -329 0
-328 0 -7 77 c-3 42 -6 115 -7 162 -1 117 -7 135 -45 139 l-31 3 -6 -68z
m-228 -419 c24 -5 23 -6 -15 -45 -21 -23 -59 -53 -84 -67 -40 -24 -55 -27
-140 -27 -76 1 -105 5 -146 24 -59 26 -133 96 -118 111 15 15 430 19 503 4z
m1181 -1 c0 -21 34 -459 50 -638 5 -66 12 -146 15 -177 3 -32 7 -85 11 -118
l5 -61 -605 3 c-332 2 -608 6 -612 11 -7 7 6 232 26 432 5 50 17 191 26 315 9
124 19 227 21 230 6 6 376 15 761 18 282 2 302 1 302 -15z m623 -3 c15 -13
-53 -79 -110 -106 -66 -31 -184 -43 -249 -25 -74 20 -182 107 -160 129 19 18
499 20 519 2z m-545 -1250 l-3 -179 -45 -46 -44 -45 -521 0 -521 0 -31 33
c-51 53 -53 64 -53 246 l0 171 611 0 611 0 -4 -180z"/>
<path d="M2304 2763 c-40 -8 -76 -58 -81 -110 -4 -51 5 -67 61 -111 47 -36 91
-30 142 22 50 49 55 80 26 136 -28 53 -82 76 -148 63z m54 -85 c19 -19 14 -56
-8 -63 -11 -3 -24 -3 -30 0 -14 9 -12 62 3 68 19 8 22 8 35 -5z"/>
<path d="M2856 2739 c-64 -50 -70 -123 -15 -179 55 -55 127 -53 178 6 47 53
42 132 -13 176 -31 26 -116 24 -150 -3z m92 -61 c19 -19 14 -46 -9 -59 -32
-16 -53 8 -40 44 11 29 30 34 49 15z"/>
<path d="M2285 1819 c-28 -25 -35 -38 -35 -68 0 -69 61 -115 120 -91 87 36 92
132 10 175 -41 21 -55 19 -95 -16z"/>
<path d="M2870 1815 c-42 -43 -46 -92 -11 -129 45 -48 117 -40 155 18 25 39
19 65 -23 107 -49 49 -76 50 -121 4z"/>
<path d="M3583 1375 c-17 -7 -36 -22 -42 -34 -26 -48 -3 -171 41 -218 29 -32
78 -30 117 3 27 23 31 32 31 78 0 68 -25 141 -57 166 -30 23 -46 24 -90 5z
m71 -69 c19 -45 29 -111 21 -136 -8 -25 -51 -27 -64 -2 -5 9 -15 45 -22 79
-10 50 -10 64 0 77 22 27 49 19 65 -18z"/>
<path d="M1675 1371 c-28 -12 -62 -50 -74 -84 -16 -42 -13 -119 5 -145 42 -60
164 -72 164 -15 0 9 -14 13 -43 13 -30 0 -49 6 -60 18 -36 40 -8 151 43 167
13 4 33 -1 55 -13 36 -22 45 -20 45 9 0 36 -91 69 -135 50z"/>
<path d="M3250 1312 c-37 -18 -55 -62 -26 -62 8 0 18 5 21 10 11 18 63 12 70
-9 7 -24 -15 -79 -49 -124 -15 -19 -26 -46 -26 -61 l0 -28 63 7 c102 10 118
15 115 33 -3 14 -15 17 -61 15 -32 -1 -55 2 -53 6 3 4 21 32 41 60 45 68 48
119 9 150 -33 26 -58 26 -104 3z"/>
<path d="M2925 1168 c4 -79 11 -147 15 -151 4 -5 16 -7 26 -5 15 3 19 12 18
46 0 23 2 42 6 42 3 0 19 -18 36 -40 18 -25 37 -40 51 -40 24 0 39 15 23 25
-5 3 -22 26 -36 51 l-26 45 25 38 c14 21 23 42 20 45 -17 17 -45 2 -70 -36
l-28 -42 -9 82 c-8 78 -10 82 -33 82 l-24 0 6 -142z"/>
<path d="M2204 1287 c-9 -25 4 -37 41 -37 l34 0 -5 -72 c-3 -40 -6 -90 -8
-111 -3 -28 0 -40 13 -46 32 -17 40 2 47 111 l7 107 36 3 c29 2 37 8 39 26 3
20 -1 22 -45 22 -26 0 -72 3 -100 6 -43 6 -54 4 -59 -9z"/>
<path d="M2417 1213 c-3 -5 -6 -51 -8 -103 l-4 -95 25 0 c24 0 25 3 30 68 5
71 19 92 53 81 13 -4 17 0 17 21 0 32 -23 42 -54 21 -21 -13 -25 -13 -30 -1
-6 16 -22 20 -29 8z"/>
<path d="M2585 1213 c-26 -7 -45 -22 -45 -38 0 -9 16 -12 52 -11 41 1 53 -3
56 -15 2 -12 -8 -18 -40 -23 -50 -8 -78 -30 -78 -63 0 -48 67 -80 110 -53 9 6
17 5 21 -2 4 -6 14 -8 23 -5 13 5 16 22 16 89 0 93 -4 102 -43 117 -30 11 -39
12 -72 4z m65 -143 c0 -23 -45 -39 -62 -22 -18 18 -1 42 32 42 23 0 30 -4 30
-20z"/>
<path d="M2785 1208 c-11 -6 -25 -19 -32 -27 -16 -21 -16 -121 1 -143 36 -47
136 -42 136 8 0 24 -14 32 -25 14 -11 -17 -54 -11 -65 9 -12 24 -13 71 -1 89
5 9 22 13 46 10 39 -3 51 7 37 30 -12 18 -73 25 -97 10z"/>
<path d="M1880 1180 c0 -11 1 -20 3 -20 1 0 47 -7 102 -15 99 -14 123 -10 112
18 -3 9 -37 17 -100 25 -122 15 -117 16 -117 -8z"/>
<path d="M3472 1131 c-8 -4 -12 -19 -10 -32 2 -18 9 -24 28 -24 28 0 39 27 20
50 -14 17 -20 18 -38 6z"/>
</g>
</svg>
